<svg width="32" height="28" viewBox="0 0 32 28" fill="none" xmlns="http://www.w3.org/2000/svg">
<path d="M15.9391 24.0939C25.444 24.0939 31.875 16.4242 31.875 14.0549C31.875 11.6781 25.4344 4.02014 15.9391 4.02014C6.56414 4.02014 0 11.6781 0 14.0549C0 16.4242 6.56414 24.0939 15.9391 24.0939ZM15.9434 20.4641C12.3609 20.4641 9.50648 17.5478 9.49687 14.057C9.48726 10.4725 12.3609 7.6499 15.9434 7.6499C19.497 7.6499 22.3802 10.4746 22.3802 14.057C22.3802 17.5478 19.497 20.4641 15.9434 20.4641ZM15.9391 16.442C17.2589 16.442 18.3455 15.3651 18.3455 14.0612C18.3455 12.7457 17.2589 11.6645 15.9391 11.6645C14.614 11.6645 13.5316 12.7457 13.5316 14.0612C13.5316 15.3651 14.614 16.442 15.9391 16.442Z" fill="currentColor"/>
</svg>
