<svg width="29" height="28" viewBox="0 0 29 28" fill="none" xmlns="http://www.w3.org/2000/svg">
<path d="M16.4432 26.2618C23.0739 26.2618 28.5482 20.7706 28.5482 14.1568C28.5482 7.52488 23.0538 2.05176 16.4336 2.05176C10.267 2.05176 5.12504 6.76996 4.42871 12.7578C5.14425 12.5933 6.09229 12.5485 6.85682 12.6652C7.54354 7.98542 11.542 4.43627 16.4336 4.43627C21.8182 4.43627 26.1637 8.76261 26.1637 14.1568C26.1637 16.7223 25.1859 19.0491 23.5615 20.7657C22.3603 19.422 19.7808 18.1981 16.4336 18.1981C15.374 18.1981 14.3976 18.3261 13.5203 18.534C13.6546 19.0902 13.7228 19.689 13.7228 20.2782C13.7228 22.1844 13.0043 23.9532 11.8075 25.3133C13.2405 25.925 14.8078 26.2618 16.4432 26.2618ZM16.4336 16.2671C18.6963 16.2884 20.4679 14.3518 20.4679 11.8385C20.4679 9.47347 18.6825 7.50167 16.4336 7.50167C14.1752 7.50167 12.3759 9.47347 12.3972 11.8385C12.4111 14.3422 14.1689 16.2479 16.4336 16.2671Z" fill="currentColor"/>
<path d="M6.03117 26.3211C9.30234 26.3211 12.0623 23.5857 12.0623 20.2878C12.0623 16.9782 9.34078 14.2587 6.03117 14.2587C2.72906 14.2587 0 16.9878 0 20.2878C0 23.6049 2.72906 26.3211 6.03117 26.3211Z" fill="currentColor"/>
<path d="M6.03113 24.2134C5.42879 24.2134 4.94434 23.7544 4.94434 23.153C4.94434 22.5655 5.43301 22.0916 6.03113 22.0916C6.63675 22.0916 7.11792 22.5676 7.10831 23.153C7.10831 23.7544 6.63136 24.2134 6.03113 24.2134ZM6.03113 21.3041C5.56824 21.3041 5.23519 20.987 5.22137 20.5379L5.1234 17.2243C5.10746 16.6953 5.48199 16.3271 6.03113 16.3271C6.58027 16.3271 6.95691 16.6932 6.94097 17.2243L6.843 20.5379C6.82917 20.987 6.49191 21.3041 6.03113 21.3041Z" fill="black"/>
</svg>
