<?xml version="1.0" standalone="no"?>
<!DOCTYPE svg PUBLIC "-//W3C//DTD SVG 20010904//EN"
 "http://www.w3.org/TR/2001/REC-SVG-20010904/DTD/svg10.dtd">
<svg version="1.0" xmlns="http://www.w3.org/2000/svg"
 width="260.000000pt" height="260.000000pt" viewBox="0 0 260.000000 260.000000"
 preserveAspectRatio="xMidYMid meet">
<metadata>
Created by potrace 1.14, written by Peter Selinger 2001-2017
</metadata>
<g transform="translate(0.000000,260.000000) scale(0.100000,-0.100000)"
fill="#000000" stroke="none">
<path d="M1202 2140 c-319 -122 -480 -189 -517 -214 -252 -174 -335 -494 -197
-768 68 -138 223 -262 374 -301 56 -15 57 -14 64 7 52 177 201 631 216 660 50
98 157 179 279 211 56 15 239 21 239 8 -1 -22 -202 -639 -221 -678 -12 -24
-43 -65 -68 -91 -90 -90 -176 -124 -340 -133 l-114 -6 -74 -220 c-80 -239 -82
-259 -36 -307 53 -55 50 -56 555 136 255 97 487 191 517 209 73 44 179 160
218 239 61 123 79 274 48 406 -48 203 -228 388 -424 435 -29 6 -51 17 -51 25
0 7 32 107 70 223 39 117 70 220 70 231 0 55 -59 109 -117 107 -15 0 -236 -81
-491 -179z"/>
</g>
</svg>
