<svg width="28" height="28" viewBox="0 0 28 28" fill="none" xmlns="http://www.w3.org/2000/svg">
<path d="M4.63672 24.9688H15.3594C17.082 24.9688 17.9961 24.0312 17.9961 22.1797V14.1055C17.9961 12.2656 17.082 11.3281 15.3594 11.3281H4.63672C2.91406 11.3281 2 12.2656 2 14.1055V22.1797C2 24.0312 2.91406 24.9688 4.63672 24.9688ZM4.69531 23.1992C4.19141 23.1992 3.89844 22.8828 3.89844 22.3086V13.9766C3.89844 13.4023 4.19141 13.0977 4.69531 13.0977H15.3008C15.8164 13.0977 16.0977 13.4023 16.0977 13.9766V22.3086C16.0977 22.8828 15.8164 23.1992 15.3008 23.1992H4.69531ZM14.2227 12.2422H16.0742V8.29297C16.0742 5.32812 17.9727 3.76953 20.1641 3.76953C22.3555 3.76953 24.2539 5.32812 24.2539 8.29297V10.8945C24.2539 11.5859 24.6641 11.9375 25.1914 11.9375C25.6953 11.9375 26.1172 11.6211 26.1172 10.8945V8.53906C26.1172 4.13281 23.2227 2 20.1641 2C17.0938 2 14.2227 4.13281 14.2227 8.53906V12.2422Z" fill="currentColor"/>
</svg>
