<svg width="28" height="28" viewBox="0 0 28 28" fill="none" xmlns="http://www.w3.org/2000/svg">
<path d="M3 20.6183C3 21.6109 3.74062 22.2662 4.95937 22.2662H9.78234C9.87609 24.5194 11.7068 26.5653 14.363 26.5653C17.0308 26.5653 18.8615 24.5194 18.9553 22.2662H23.7783C24.9874 22.2662 25.7376 21.6109 25.7376 20.6183C25.7376 19.3726 24.5887 18.3052 23.5366 17.2812C22.721 16.4832 22.5269 14.8845 22.372 13.3281C22.3582 12.6516 22.3038 12.0254 22.2398 11.4184C21.554 11.6933 20.6904 11.8093 19.958 11.7184C20.0198 12.2635 20.0625 12.8492 20.0742 13.531C20.1923 15.755 20.5823 17.4418 21.3743 18.3666C21.9574 19.0252 22.6066 19.6534 22.9083 19.9869V20.1233H5.79654V19.9869C6.09607 19.6534 6.7781 19.0252 7.35373 18.3666C8.16162 17.4418 8.54107 15.755 8.66342 13.531C8.79513 8.77061 10.2553 7.18178 12.1453 6.67108C12.4298 6.60288 12.5939 6.46858 12.6162 6.1428C12.6745 4.95358 13.3376 4.15084 14.363 4.15084C14.5612 4.15084 14.7499 4.17217 14.9055 4.23826C15.1176 3.54522 15.4781 2.90843 15.9628 2.37875C15.4912 2.13406 14.9526 2 14.363 2C12.6234 2 11.3198 3.1775 10.8825 4.74008C7.81804 5.84399 6.53202 8.80578 6.37828 13.2458C6.22758 14.8592 6.02719 16.4748 5.20102 17.2812C4.1393 18.3052 3 19.3726 3 20.6183ZM11.9923 22.2662H16.7454C16.6559 23.7439 15.6987 24.6852 14.363 24.6852C13.039 24.6852 12.0722 23.7439 11.9923 22.2662Z" fill="currentColor"/>
<path d="M20.2246 10.1825C22.431 10.1825 24.2741 8.3586 24.2741 6.14258C24.2741 3.91696 22.431 2.09305 20.2246 2.09305C17.9989 2.09305 16.175 3.91696 16.175 6.14258C16.175 8.3586 17.9989 10.1825 20.2246 10.1825Z" fill="currentColor"/>
</svg>
