<svg width="28" height="28" viewBox="0 0 28 28" fill="none" xmlns="http://www.w3.org/2000/svg">
<path d="M19.9168 18.3262L23.2266 20.2124C23.2831 20.2359 23.3141 20.271 23.3141 20.3179C23.3141 20.3723 23.2831 20.4074 23.2266 20.4309L14.6019 25.3525C14.4249 25.4495 14.2777 25.5039 14.1263 25.5039C13.9749 25.5039 13.8277 25.4495 13.6412 25.3525L5.01639 20.4309C4.96951 20.4074 4.93857 20.3723 4.93857 20.3179C4.93857 20.271 4.96951 20.2359 5.01639 20.2124L8.64967 18.1485L6.37507 16.8011L3.42218 18.513C2.42656 19.0891 2 19.5817 2 20.3179C2 21.0616 2.42656 21.5542 3.42218 22.1324L12.5368 27.4126C13.1499 27.7682 13.6205 27.9437 14.1263 27.9437C14.6225 27.9437 15.1048 27.7682 15.7158 27.4126L24.8209 22.1324C25.8165 21.5542 26.2526 21.0616 26.2526 20.3179C26.2526 19.5817 25.8165 19.0891 24.8209 18.513L22.0571 16.8988L19.9168 18.3262Z" fill="currentColor"/>
<path d="M19.7159 12.7431L23.2266 14.7405C23.2831 14.766 23.3141 14.7991 23.3141 14.8555C23.3141 14.9099 23.2831 14.9355 23.2266 14.9685L14.6019 19.8805C14.4249 19.9776 14.2777 20.032 14.1263 20.032C13.9749 20.032 13.8277 19.9776 13.6412 19.8805L5.01639 14.9685C4.96951 14.9355 4.93857 14.9099 4.93857 14.8555C4.93857 14.7991 4.96951 14.766 5.01639 14.7405L8.79053 12.5863L6.59492 11.2122L3.42218 13.041C2.42656 13.6267 2 14.1119 2 14.8555C2 15.5992 2.42656 16.0823 3.42218 16.6605L12.5368 21.9503C13.1499 22.3058 13.6205 22.4814 14.1263 22.4814C14.6225 22.4814 15.1048 22.3058 15.7158 21.9503L24.8209 16.6605C25.8165 16.0823 26.2526 15.5992 26.2526 14.8555C26.2526 14.1119 25.8165 13.6267 24.8209 13.041L21.8951 11.3399L19.7159 12.7431Z" fill="currentColor"/>
<path d="M14.1263 16.6703C14.6225 16.6703 15.1048 16.4969 15.7158 16.1392L24.8209 10.859C25.8165 10.2829 26.2526 9.78814 26.2526 9.04447C26.2526 8.31041 25.8165 7.81776 24.8209 7.23955L15.7158 1.95931C15.1048 1.60377 14.6225 1.42822 14.1263 1.42822C13.6205 1.42822 13.1499 1.60377 12.5368 1.95931L3.42218 7.23955C2.42656 7.81776 2 8.31041 2 9.04447C2 9.78814 2.42656 10.2829 3.42218 10.859L12.5368 16.1392C13.1499 16.4969 13.6205 16.6703 14.1263 16.6703ZM14.1263 14.2326C13.9749 14.2326 13.8277 14.1782 13.6412 14.0791L5.01639 9.15955C4.96951 9.134 4.93857 9.10095 4.93857 9.04447C4.93857 8.99759 4.96951 8.96455 5.01639 8.939L13.6412 4.01946C13.8277 3.92032 13.9749 3.86805 14.1263 3.86805C14.2777 3.86805 14.4249 3.92032 14.6019 4.01946L23.2266 8.939C23.2831 8.96455 23.3141 8.99759 23.3141 9.04447C23.3141 9.10095 23.2831 9.134 23.2266 9.15955L14.6019 14.0791C14.4249 14.1782 14.2777 14.2326 14.1263 14.2326Z" fill="currentColor"/>
</svg>
