<svg width="28" height="28" viewBox="0 0 28 28" fill="none" xmlns="http://www.w3.org/2000/svg">
<path d="M3.84421 24.7999H18.1277V22.504H3.97733C2.88772 22.504 2.29592 21.9398 2.29592 20.8012V6.9227C2.29592 5.7841 2.88772 5.22207 3.97733 5.22207H23.7778C24.8578 5.22207 25.4592 5.7841 25.4592 6.9227V14.79L27.7552 17.1051V6.73192C27.7552 4.22927 26.4499 2.92615 23.9109 2.92615H3.84421C1.31484 2.92615 0 4.21966 0 6.73192V20.9941C0 23.5043 1.31484 24.7999 3.84421 24.7999ZM5.80944 10.0849H19.0477C19.4801 10.0849 19.7932 9.75793 19.7932 9.33512C19.7932 8.92614 19.4801 8.60129 19.0477 8.60129H5.80944C5.3653 8.60129 5.05006 8.92614 5.05006 9.33512C5.05006 9.75793 5.3653 10.0849 5.80944 10.0849ZM5.80944 14.6069H13.5959C14.0187 14.6069 14.3318 14.28 14.3318 13.8476C14.3318 13.4365 14.0187 13.1233 13.5959 13.1233H5.80944C5.3653 13.1233 5.05006 13.4365 5.05006 13.8476C5.05006 14.28 5.3653 14.6069 5.80944 14.6069ZM5.80944 19.113H16.3941C16.8169 19.113 17.13 18.7999 17.13 18.3888C17.13 17.966 16.8169 17.6294 16.3941 17.6294H5.80944C5.3653 17.6294 5.05006 17.966 5.05006 18.3888C5.05006 18.7999 5.3653 19.113 5.80944 19.113Z" fill="currentColor"/>
<path d="M19.3136 21.9925C19.3018 22.5044 19.8958 22.6842 20.2268 22.3427L21.8983 20.6362L23.8073 25.3622C23.9276 25.627 24.1873 25.7747 24.4699 25.6673L25.6322 25.2091C25.9169 25.0943 25.9694 24.7786 25.8598 24.5411L23.8348 19.8782L26.2457 19.8065C26.7438 19.7936 26.9822 19.2947 26.6277 18.9328L20.2758 12.4249C19.9373 12.0961 19.4414 12.2833 19.4297 12.7654L19.3136 21.9925Z" fill="currentColor"/>
</svg>
