<svg width="28" height="28" viewBox="0 0 28 28" fill="none" xmlns="http://www.w3.org/2000/svg">
<path d="M6.99132 25.2755H21.6121C23.6291 25.2755 24.6034 24.641 24.6034 23.2655C24.6034 20.0581 20.5916 15.7516 14.3055 15.7516C8.01179 15.7516 4 20.0581 4 23.2655C4 24.641 4.97429 25.2755 6.99132 25.2755ZM6.60929 23.2507C6.33413 23.2507 6.2221 23.1666 6.2221 22.9479C6.2221 21.1526 9.12483 17.7764 14.3055 17.7764C19.4765 17.7764 22.3813 21.1526 22.3813 22.9479C22.3813 23.1666 22.2789 23.2507 22.0016 23.2507H6.60929ZM14.3055 14.385C17.1388 14.385 19.4334 11.8816 19.4334 8.81598C19.4334 5.79067 17.14 3.38879 14.3055 3.38879C11.4923 3.38879 9.17547 5.82911 9.17969 8.83731C9.19141 11.8912 11.4742 14.385 14.3055 14.385ZM14.3055 12.3602C12.6852 12.3602 11.3048 10.8335 11.3026 8.83309C11.3005 6.88895 12.6723 5.41355 14.3055 5.41355C15.9524 5.41355 17.3104 6.86973 17.3104 8.81598C17.3104 10.8143 15.9395 12.3602 14.3055 12.3602Z" fill="currentColor"/>
</svg>
