<svg width="28" height="30" viewBox="0 0 28 30" fill="none" xmlns="http://www.w3.org/2000/svg">
<path d="M12.2422 15.1805C15.0312 15.1805 17.3047 12.6961 17.3047 9.67267C17.3047 6.67267 15.0547 4.3172 12.2422 4.3172C9.46484 4.3172 7.17969 6.71955 7.17969 9.69611C7.19141 12.7078 9.46484 15.1805 12.2422 15.1805ZM12.2422 13.4109C10.5312 13.4109 9.06641 11.7703 9.06641 9.69611C9.06641 7.65705 10.5078 6.08673 12.2422 6.08673C14 6.08673 15.418 7.63361 15.418 9.67267C15.418 11.7469 13.9766 13.4109 12.2422 13.4109ZM4.88281 26.0203H15.1602C15.0781 25.657 15.043 25.2703 15.043 24.825V24.2508H4.32031C4.01562 24.2508 3.88672 24.1688 3.88672 23.9227C3.88672 22.0008 6.86328 18.4031 12.2422 18.4031C13.543 18.4031 14.7148 18.6375 15.6992 19.0125C16.0039 18.45 16.4961 17.9813 17.1758 17.6766C15.7812 17.0438 14.1289 16.6336 12.2422 16.6336C5.87891 16.6336 2 21.075 2 24.1453C2 25.4344 2.92578 26.0203 4.88281 26.0203ZM16.6484 24.8719C16.6484 27.1219 17.9609 27.9422 21.1484 29.8055C21.4297 29.9813 21.875 30.0164 22.2383 29.8055C25.4258 27.9305 26.75 27.1219 26.75 24.8719V20.6531C26.75 19.9734 26.4922 19.5281 25.8008 19.2352C25.1094 18.9539 22.9414 18.1805 22.2734 17.9461C21.8867 17.8172 21.4531 17.8172 21.0195 17.993C20.4453 18.2039 18.2773 18.9539 17.5977 19.2352C16.9062 19.5281 16.6484 19.9734 16.6484 20.6531V24.8719ZM20.9961 27.1219C20.7969 27.1219 20.5625 27.0398 20.4102 26.8641L18.418 24.6961C18.2891 24.5438 18.2305 24.3328 18.2305 24.157C18.2305 23.7469 18.5469 23.4188 18.957 23.4188C19.2031 23.4188 19.3906 23.5359 19.5195 23.6766L20.9609 25.2352L23.8203 21.2742C23.9492 21.075 24.1719 20.9461 24.4414 20.9461C24.8281 20.9461 25.1797 21.2625 25.1797 21.6727C25.1797 21.8016 25.1211 21.9656 25.0156 22.1063L21.6055 26.8406C21.4766 27.0047 21.2539 27.1219 20.9961 27.1219Z" fill="currentColor"/>
</svg>
