<svg width="28" height="28" viewBox="0 0 28 28" fill="none" xmlns="http://www.w3.org/2000/svg">
<path d="M7.16797 24.9844C8.21094 24.9844 9.25391 24.7969 10.2969 24.2227C10.2852 24.082 10.2734 23.9297 10.2734 23.7891C10.2734 23.1914 10.4023 22.8047 10.8477 22.043C9.42969 22.8047 8.38672 23.168 7.25 23.168C5.08203 23.168 3.76953 21.8086 3.76953 19.5703V9.19922C3.76953 4.73438 6.71094 1.76953 11.1289 1.76953C15.3945 1.76953 18.2305 4.73438 18.2305 9.15234C18.2305 10.1953 18.0547 11.0273 17.7617 11.7656C18.3125 11.5664 19.0508 11.5664 19.6133 11.7656C19.8477 11.0391 20 10.1953 20 9.15234C20 3.66797 16.4492 0 11.1289 0C5.67969 0 2 3.69141 2 9.19922V19.6875C2 22.9219 4.01562 24.9844 7.16797 24.9844ZM6.26562 15.1641C6.74609 15.1641 7.15625 14.7539 7.15625 14.2734V9.12891C7.15625 6.87891 8.72656 5.39062 11.1172 5.39062C13.3906 5.39062 14.8555 6.86719 14.8555 9.12891C14.8555 9.60938 15.2539 10.0195 15.7344 10.0195C16.2148 10.0195 16.625 9.60938 16.625 9.12891C16.625 5.83594 14.4219 3.62109 11.1172 3.62109C7.69531 3.62109 5.38672 5.83594 5.38672 9.12891V14.2734C5.38672 14.7539 5.78516 15.1641 6.26562 15.1641ZM10.2148 17.3438C10.4844 17.3438 10.7422 17.2031 10.9414 16.957L12.4648 15.0234C12.9453 14.4141 13.2617 13.5234 13.2617 12.7969C13.2617 11.0742 12.0078 9.91406 10.1094 9.91406H6.17188V11.6836H10.1328C10.9297 11.6836 11.4336 12.1641 11.4336 12.8672C11.4336 13.2305 11.2461 13.7227 10.9648 14.0625L9.55859 15.832C9.40625 16.0312 9.32422 16.2422 9.32422 16.4648C9.32422 16.9453 9.73438 17.3438 10.2148 17.3438ZM13.4492 25.3711H23.6094C24.5703 25.3711 25.1914 24.6797 25.1914 23.7891C25.1914 23.5312 25.1211 23.2617 24.9688 23.0156L19.8828 13.9336C19.5781 13.4062 19.0625 13.1367 18.5352 13.1367C17.9961 13.1367 17.457 13.4062 17.1641 13.9336L12.0898 23.0156C11.9492 23.2617 11.8789 23.5312 11.8789 23.7891C11.8789 24.6797 12.4883 25.3711 13.4492 25.3711ZM18.5352 23.5781C17.9961 23.5781 17.5391 23.1445 17.5391 22.5938C17.5391 22.0547 17.9961 21.5977 18.5352 21.5977C19.0859 21.5977 19.5195 22.0547 19.5195 22.5938C19.5195 23.1445 19.0742 23.5781 18.5352 23.5781ZM18.5352 20.7891C18.125 20.7891 17.832 20.5078 17.8203 20.1094L17.7266 16.7578C17.7148 16.2773 18.043 15.9492 18.5352 15.9492C19.0273 15.9492 19.3438 16.2773 19.332 16.7578L19.2383 20.1094C19.2266 20.5078 18.9453 20.7891 18.5352 20.7891Z" fill="currentColor"/>
</svg>
