<svg width="28" height="28" viewBox="0 0 28 28" fill="none" xmlns="http://www.w3.org/2000/svg">
<path d="M14.105 25.2563C17.4092 25.2563 20.0947 20.4673 20.0947 14.1263C20.0947 7.75436 17.4209 2.96327 14.105 2.96327C10.7912 2.96327 8.11531 7.75436 8.11531 14.1263C8.11531 20.4673 10.8008 25.2563 14.105 25.2563ZM14.105 4.4867C16.3702 4.4867 18.4252 8.98741 18.4252 14.1263C18.4252 19.1841 16.3702 23.7233 14.105 23.7233C11.8419 23.7233 9.78687 19.1905 9.78687 14.1263C9.78687 8.98741 11.8419 4.4867 14.105 4.4867ZM13.2927 3.12522V25.0358H14.9291V3.12522H13.2927ZM14.105 18.2181C10.4429 18.2181 7.18461 19.1652 5.56718 20.6663L6.82249 21.7044C8.33773 20.5161 10.9248 19.8545 14.105 19.8545C17.2873 19.8545 19.8744 20.5161 21.3875 21.7044L22.6428 20.6663C21.0275 19.1652 17.7692 18.2181 14.105 18.2181ZM24.8476 13.2788H3.36452V14.9152H24.8476V13.2788ZM14.105 10.0463C17.7692 10.0463 21.0275 9.0992 22.6428 7.59803L21.3875 6.55998C19.8744 7.73866 17.2873 8.40991 14.105 8.40991C10.9269 8.40991 8.34195 7.73866 6.82249 6.55998L5.56718 7.59803C7.18461 9.0992 10.4429 10.0463 14.105 10.0463ZM14.105 26.21C20.7369 26.21 26.2121 20.7273 26.2121 14.105C26.2121 7.47312 20.7273 2 14.0954 2C7.47523 2 2 7.47312 2 14.105C2 20.7273 7.48484 26.21 14.105 26.21ZM14.105 24.3336C8.51233 24.3336 3.8785 19.6998 3.8785 14.105C3.8785 8.51023 8.50273 3.87639 14.0954 3.87639C19.6902 3.87639 24.3336 8.51023 24.3336 14.105C24.3336 19.6998 19.6998 24.3336 14.105 24.3336Z" fill="currentColor"/>
</svg>
