<svg width="30" height="28" viewBox="0 0 30 28" fill="none" xmlns="http://www.w3.org/2000/svg">
<path d="M0.269502 14.1233C-0.246589 14.8416 -0.0124494 15.5087 0.894579 15.5087H2.55184C3.23528 21.4524 8.39668 26.21 14.5823 26.21C18.0384 26.21 21.1715 24.6887 23.3388 22.3325C23.8926 21.7695 23.8615 21.027 23.3939 20.6061C22.9179 20.1725 22.233 20.1884 21.6745 20.7233C19.9319 22.6311 17.4033 23.8255 14.5823 23.8255C9.6248 23.8255 5.61651 20.188 4.97034 15.5087H6.73331C7.6244 15.5087 7.86487 14.8437 7.35628 14.1329L4.56254 10.1984C4.14324 9.60454 3.49426 9.59915 3.06746 10.1984L0.269502 14.1233ZM5.83542 5.87751C5.27199 6.44048 5.30527 7.17336 5.78035 7.59219C6.25847 8.02789 6.93159 8.02155 7.49971 7.48672C9.2519 5.59061 11.7806 4.38452 14.5823 4.38452C19.5302 4.38452 23.5406 8.02202 24.1964 12.7109H22.4229C21.5297 12.7109 21.2892 13.3662 21.7978 14.0867L24.5936 18.0212C25.0129 18.6151 25.6619 18.6205 26.0887 18.0212L28.8771 14.0963C29.4007 13.3684 29.159 12.7109 28.252 12.7109H26.6149C25.9197 6.76719 20.77 2 14.5823 2C11.1262 2 8.0048 3.51172 5.83542 5.87751Z" fill="currentColor"/>
</svg>
