<?xml version="1.0" encoding="utf-8"?>
<!-- Generator: Adobe Illustrator 24.3.0, SVG Export Plug-In . SVG Version: 6.00 Build 0)  -->
<svg version="1.1" id="Layer_1" xmlns="http://www.w3.org/2000/svg" xmlns:xlink="http://www.w3.org/1999/xlink" x="0px" y="0px"
	 viewBox="0 0 2500 2000" style="enable-background:new 0 0 2500 2000;" xml:space="preserve">
<style type="text/css">
	.st0{fill:#FFFFFF;}
</style>
<g>
	<g>
		<g>
			<path class="st0" d="M2162.23,716.67c0,20.07-7.88,38.83-22.51,53.46l-0.94,0.94c-13.88,13.32-31.89,20.45-51.02,20.45
				c-20.64,0.38-39.21-7.69-53.27-21.76L1757.25,492.7c-29.26-29.26-29.26-76.91,0-106.17c14.07-14.07,33.01-21.76,52.9-21.76
				c20.07,0,38.83,7.88,53.09,21.94l277.05,277.05C2154.36,678.02,2162.23,696.78,2162.23,716.67z"/>
		</g>
	</g>
	<g>
		<g>
			<path class="st0" d="M2165.42,1279.96c0,19.88-7.88,38.83-21.94,53.08c-28.7,28.14-77.47,28.32-105.79,0l-560.67-560.29
				c-14.26-14.07-21.94-33.01-21.94-53.09c0-19.88,7.88-38.83,22.13-52.9c14.07-14.26,32.83-21.95,52.9-21.95
				c19.88,0,38.64,7.88,52.9,21.95l560.29,560.29C2157.54,1241.32,2165.42,1260.07,2165.42,1279.96z"/>
		</g>
	</g>
	<g>
		<g>
			<path class="st0" d="M1885.18,1560.2c0,19.88-7.88,38.83-21.94,53.09c-29.26,29.26-76.72,29.26-105.98,0L636.67,492.7
				c-14.07-14.07-21.94-33.01-21.94-53.09c0-20.07,7.88-38.83,22.13-53.09c14.07-14.07,32.83-21.76,52.9-21.76
				c19.88,0,38.64,7.88,52.9,21.94L1863.42,1507.3C1877.49,1521.37,1885.18,1540.12,1885.18,1560.2z"/>
		</g>
	</g>
	<g>
		<g>
			<path class="st0" d="M764.79,1560.2c0,19.88-7.88,38.64-22.13,53.09c-14.26,14.07-33.01,21.94-52.9,21.94c-0.19,0-0.19,0-0.19,0
				c-20.07,0-38.64-7.88-52.71-21.94l-280.43-280.43c-14.07-14.07-21.76-32.83-21.76-52.9c-0.19-19.88,7.69-38.83,21.94-53.09
				c14.07-14.07,33.01-21.94,52.9-21.94c19.69,0,38.64,7.88,52.9,21.94l280.43,280.43C756.91,1521.55,764.79,1540.31,764.79,1560.2z
				"/>
		</g>
	</g>
	<g>
		<g>
			<path class="st0" d="M1044.84,1279.96c0,10.13-1.87,19.69-6,28.89c-3.57,9.19-9,17.26-16.13,24.2
				c-14.07,14.26-32.26,21.95-51.4,21.95c-21.01-0.19-40.33-7.88-54.4-21.95L356.43,772.75c-29.26-29.26-29.08-76.72,0.19-105.98
				c14.07-14.26,32.83-21.95,52.9-21.95c19.88,0,38.64,7.88,52.9,21.95l560.29,560.29
				C1036.96,1241.32,1044.84,1260.07,1044.84,1279.96z"/>
		</g>
	</g>
</g>
</svg>